<!--?xml version="1.0" encoding="utf-8"?-->
<!-- Generator: Adobe Illustrator 18.1.1, SVG Export Plug-In . SVG Version: 6.00 Build 0)  -->

<svg version="1.1" id="_x32_" xmlns="http://www.w3.org/2000/svg" xmlns:xlink="http://www.w3.org/1999/xlink" x="0px" y="0px" viewBox="0 0 512 512" style="width:100%; height:auto; opacity: 1;" xml:space="preserve">
<style type="text/css">
	.st0{fill:#8a7a6a;}
</style>
<g>
	<path class="st0" d="M144.416,180.644c0-23.685-19.197-42.882-42.891-42.882h-8.772c-23.694,0-42.892,19.197-42.892,42.882v240.779
		h94.554V180.644z" style="fill: rgb(138, 122, 106);"></path>
	<path class="st0" d="M332.831,213.451c-5.014,6.713-7.756,14.848-7.756,23.352c0,10.499,4.063,20.241,11.44,27.608
		c7.378,7.378,17.212,11.441,27.61,11.441c10.406,0,20.24-4.063,27.609-11.339c13.906-13.906,15.134-35.744,3.592-51.063H332.831z" style="fill: rgb(138, 122, 106);"></path>
	<path class="st0" d="M364.124,370.313c-17.203,0-34.036-3.306-49.539-9.455v60.611h94.544v-58.912
		C394.854,367.664,379.637,370.313,364.124,370.313z" style="fill: rgb(138, 122, 106);"></path>
	<path class="st0" d="M276.763,337.691c-2.465-1.985-4.728-4.155-6.999-6.426c-25.246-25.246-39.059-58.718-39.059-94.462
		c0-35.642,13.813-69.114,39.059-94.36c2.271-2.271,4.534-4.451,6.999-6.435V67.225c0-23.685-19.207-42.882-42.89-42.882h-8.782
		c-23.684,0-42.881,19.197-42.881,42.882v354.244h94.554V337.691z" style="fill: rgb(138, 122, 106);"></path>
	<path class="st0" d="M503.433,343.499l-51.016-49.696c10.878-16.823,16.769-36.417,16.769-56.963
		c0-28.107-10.924-54.497-30.749-74.322c-19.825-19.825-46.215-30.749-74.322-30.749c-28.108,0-54.498,10.924-74.332,30.749
		c-19.824,19.825-30.748,46.215-30.748,74.322c0,28.108,10.924,54.507,30.748,74.332c19.834,19.824,46.224,30.748,74.332,30.748
		c20.544,0,40.148-5.9,56.972-16.778l49.678,50.998c9.261,11.163,22.927,11.828,33.491,1.264
		C514.828,366.851,514.597,352.733,503.433,343.499z M364.115,293.231c-15.06,0-29.224-5.873-39.881-16.52
		c-10.647-10.646-16.51-24.811-16.51-39.871c0-15.06,5.863-29.215,16.51-39.862c10.656-10.647,24.811-16.52,39.881-16.52
		c15.051,0,29.215,5.873,39.862,16.52c21.986,21.986,21.986,57.757,0,79.743C393.33,287.367,379.174,293.231,364.115,293.231z" style="fill: rgb(138, 122, 106);"></path>
	<rect x="0" y="449.835" class="st0" width="453.858" height="37.822" style="fill: rgb(138, 122, 106);"></rect>
</g>
</svg>
