<!--?xml version="1.0" encoding="utf-8"?-->
<!-- Generator: Adobe Illustrator 18.1.1, SVG Export Plug-In . SVG Version: 6.00 Build 0)  -->

<svg version="1.1" id="_x32_" xmlns="http://www.w3.org/2000/svg" xmlns:xlink="http://www.w3.org/1999/xlink" x="0px" y="0px" viewBox="0 0 512 512" style="width:100%;height:auto;" xml:space="preserve">
<style type="text/css">
	.st0{fill:#8a7a6a;}
</style>
<g>
	<path class="st0" d="M443.969,121.602H68.031C30.461,121.602,0,152.055,0,189.633v37.352l207.336,46.469v-3.836
		c0-12.531,10.156-22.68,22.68-22.68h50.64c12.524,0,22.68,10.149,22.68,22.68v3.836L512,226.539v-36.906
		C512,152.055,481.539,121.602,443.969,121.602z" style="fill: rgb(138, 122, 106);"></path>
	<path class="st0" d="M303.336,352.258c0,12.531-10.156,22.68-22.68,22.68h-50.64c-12.524,0-22.68-10.149-22.68-22.68v-45L0,260.789
		V429.57c0,37.578,30.461,68.031,68.031,68.031h375.938c37.57,0,68.031-30.453,68.031-68.031V260.336l-208.664,46.922V352.258z" style="fill: rgb(138, 122, 106);"></path>
	<rect x="231.336" y="270.938" class="st0" width="48" height="80" style="fill: rgb(138, 122, 106);"></rect>
	<path class="st0" d="M180.398,64.805c0.008-2.062,0.774-3.718,2.11-5.102c1.375-1.336,3.039-2.094,5.094-2.11h136.797
		c2.054,0.016,3.719,0.774,5.094,2.11c1.336,1.383,2.094,3.039,2.11,5.102v36h43.195v-36c0.008-13.851-5.672-26.586-14.766-35.641
		c-9.046-9.086-21.781-14.774-35.633-14.766H187.602c-13.851-0.008-26.586,5.68-35.641,14.766
		c-9.086,9.055-14.774,21.79-14.758,35.641v36h43.195V64.805z" style="fill: rgb(138, 122, 106);"></path>
</g>
</svg>
