<!--?xml version="1.0" encoding="utf-8"?-->
<!-- Generator: Adobe Illustrator 15.1.0, SVG Export Plug-In . SVG Version: 6.00 Build 0)  -->

<svg version="1.1" id="_x32_" xmlns="http://www.w3.org/2000/svg" xmlns:xlink="http://www.w3.org/1999/xlink" x="0px" y="0px" width="512px" height="512px" viewBox="0 0 512 512" style="width:100%;height:auto;" xml:space="preserve">
<style type="text/css">

	.st0{fill:#7ab548;}

</style>
<g>
	<path class="st0" d="M256,0C114.625,0,0,114.625,0,256c0,141.391,114.625,256,256,256s256-114.609,256-256
		C512,114.625,397.375,0,256,0z M376.156,358.078c0,9.656-7.828,17.469-17.484,17.469H153.328c-9.656,0-17.484-7.813-17.484-17.469
		v-1.453c0-9.656,7.828-17.484,17.484-17.484h205.344c9.656,0,17.484,7.828,17.484,17.484V358.078z M390.125,216.766l-27.094,99.078
		H148.953l-27.078-99.078c-11.516-1.484-20.438-11.328-20.438-23.266c0-12.969,10.516-23.484,23.5-23.484
		c12.953,0,23.469,10.516,23.469,23.484c0,6.344-2.531,12.078-6.594,16.297c15.969,33.078,46.5,44.609,70.156,34.172
		c21.063-9.313,28.844-35.953,31.469-56.609C234.844,182.844,229,173.844,229,163.469c0-14.922,12.078-27.016,27-27.016
		s27,12.094,27,27.016c0,10.375-5.859,19.375-14.438,23.891c2.625,20.656,10.406,47.297,31.469,56.609
		c23.672,10.438,54.188-1.094,70.156-34.172c-4.063-4.219-6.594-9.953-6.594-16.297c0-12.969,10.516-23.484,23.484-23.484
		s23.484,10.516,23.484,23.484C410.563,205.438,401.656,215.281,390.125,216.766z" style="fill: rgb(138, 122, 106);"></path>
</g>
</svg>
